<?xml version="1.0" encoding="UTF-8"?>
<svg width="82px" height="96px" viewBox="0 0 82 96" version="1.1" xmlns="http://www.w3.org/2000/svg" xmlns:xlink="http://www.w3.org/1999/xlink">
    <g id="Symbols" stroke="none" stroke-width="1" fill="none" fill-rule="evenodd">
        <g id="Rucksack-Button" transform="translate(-66.000000, -56.000000)">
            <g id="Rucksack-Button-Copy">
                <g id="Rucksack-" transform="translate(68.000000, 58.000000)">
                    <rect id="Rectangle-4" stroke="#1D8696" stroke-width="4" x="0" y="58" width="78" height="27" rx="4"></rect>
                    <path d="M8,45.5007536 C8,28.1033678 22.0992053,14 39.5,14 L39.5,14 C56.8969696,14 71,28.10262 71,45.5007536 L71,84.0010215 C71,88.4187354 67.4094864,92 63.0050275,92 L15.9949725,92 C11.5794711,92 8,88.4201164 8,84.0010215 L8,45.5007536 Z" id="Rectangle-2" stroke="#1D8696" stroke-width="4" fill="#FFFFFF"></path>
                    <rect id="Rectangle-3" stroke="#1D8696" stroke-width="4" x="18" y="58" width="42" height="24" rx="6"></rect>
                    <path d="M17,47 C17,47 18,30.5 35,26.5 C52,22.5 59,39 59,39" id="Path-5" stroke="#1D8696" stroke-width="4"></path>
                    <path d="M28,10 C28,10 29,5.12642846e-16 38,0 C47,-4.84162709e-16 49.5,10 49.5,10" id="Path-6" stroke="#1D8696" stroke-width="4"></path>
                    <polygon id="Path-7" fill="#1D8696" points="57 49 58 43 61 43 62 49"></polygon>
                </g>
            </g>
        </g>
    </g>
</svg>