<?xml version="1.0" encoding="UTF-8"?>
<svg width="49px" height="101px" viewBox="0 0 49 101" version="1.1" xmlns="http://www.w3.org/2000/svg" xmlns:xlink="http://www.w3.org/1999/xlink">
    <g id="Symbols" stroke="none" stroke-width="1" fill="none" fill-rule="evenodd">
        <g id="Dex-Button" transform="translate(-86.000000, -56.000000)">
            <g id="Dex-Button-Copy">
                <g id="PokeDex" transform="translate(88.000000, 58.000000)">
                    <path d="M0.5,22 L0.5,79 L21,96 L37.5,84 L37.5,48.9964288 C37.5,48.9964288 46,38.5 45,26.5 C44,14.5 33,8 33,8 L25.9821656,8 L22.5,0.5 C22.5,0.5 10.6550487,4.08948795 6.5,9 C2.34495135,13.910512 0.5,22 0.5,22 Z" id="Path-8" stroke="#1D8696" stroke-width="4"></path>
                    <circle id="Oval-2" fill="#1D8696" cx="22" cy="27" r="4"></circle>
                    <rect id="Rectangle-6" fill="#1D8696" x="11" y="25" width="22" height="4"></rect>
                    <circle id="Oval-3" stroke="#1D8696" stroke-width="4" cx="22" cy="27" r="11"></circle>
                    <circle id="Oval-4" fill="#1D8696" cx="12" cy="54" r="6"></circle>
                    <rect id="Rectangle-5" fill="#1D8696" x="6" y="62" width="13" height="6"></rect>
                    <rect id="Rectangle-5-Copy" fill="#1D8696" x="6" y="70" width="13" height="6"></rect>
                </g>
            </g>
        </g>
    </g>
</svg>