<?xml version="1.0" encoding="UTF-8"?>
<svg width="74px" height="99px" viewBox="0 0 74 99" version="1.1" xmlns="http://www.w3.org/2000/svg" xmlns:xlink="http://www.w3.org/1999/xlink">
    <g id="Symbols" stroke="none" stroke-width="1" fill="none" fill-rule="evenodd">
        <g id="Pokemon-Button" transform="translate(-76.000000, -58.000000)" stroke="#1D8696" stroke-width="4">
            <g id="Pokemon-Button-Copy">
                <path d="M88.5,89.5 C79.5,79.5000002 77.5985413,62.394403 79.5,61 C81.4014587,59.605597 94.0000002,72.5000002 96,84 C103.499999,78.0000002 111.499999,81.0000002 115.006578,84 C118.499999,73.5000002 132.201677,61.3000658 134,62.5 C135.798323,63.6999342 133.500002,80.0000002 122.5,89 C124.000002,91.0000002 124.000002,93.9999983 124.000002,93.9999983 L147.5,80.5 L147.5,105.005102 L125.5,110 C125.5,110 126.000002,111.499998 125.500002,113.999998 C129.500002,118.499998 130,121.5 130,121.5 L125.5,125.5 C125.5,125.5 134.000002,142.000002 125,147.5 C126.000002,161.000002 114.000002,150.000002 114.000002,150.000002 L96.9999997,150.000002 C96.9999997,150.000002 81.9999999,161.000002 87,148.5 C78,145.000002 83.5,128 83.5,128 L87.5,111.5 C87.5,111.5 81.4999999,103.999998 88.5,89.5 Z" id="Path-2"></path>
            </g>
        </g>
    </g>
</svg>